<?xml version="1.0" encoding="utf-8"?>
<!-- Generator: Adobe Illustrator 23.0.2, SVG Export Plug-In . SVG Version: 6.00 Build 0)  -->
<svg version="1.1" id="Layer_1" xmlns="http://www.w3.org/2000/svg" xmlns:xlink="http://www.w3.org/1999/xlink" x="0px" y="0px"
	 viewBox="0 0 128 40" style="enable-background:new 0 0 128 40;" xml:space="preserve">
<style type="text/css">
	.st0{fill:#005BFF;}
	.st1{fill:#F81155;}
	.st2{fill:#FFFFFF;}
</style>
<g id="PcwHR7_1_">
</g>
<path class="st0" d="M15.4,0.1C6.6-0.8-0.8,6.6,0.1,15.4C0.7,22,6,27.2,12.5,27.9c8.8,0.9,16.2-6.5,15.3-15.3
	C27.2,6,21.9,0.8,15.4,0.1z M14.9,21.4C10.1,22,6,17.9,6.6,13C7,9.7,9.7,7,13,6.6c4.9-0.6,9,3.5,8.4,8.4
	C20.9,18.3,18.2,21,14.9,21.4z"/>
<path class="st0" d="M35.3,0.7c-2,0-3.6,1.8-3.2,3.9c0.3,1.5,1.8,2.6,3.3,2.6h9.1L30.4,25.9c-0.5,0.6,0,1.5,0.7,1.5h22.2
	c1.6,0,3-1,3.3-2.6c0.4-2.1-1.2-3.9-3.2-3.9h-11L56.5,2.2c0.5-0.6,0-1.5-0.8-1.5H35.3L35.3,0.7z"/>
<path class="st0" d="M124,0.7c-1.5,0.3-2.6,1.7-2.6,3.3v10.9l-17.6-14c-0.6-0.5-1.5-0.1-1.5,0.7V24c0,1.5,1,3,2.6,3.3
	c2.1,0.4,4-1.2,4-3.2V13.2l17.6,14c0.6,0.5,1.5,0,1.5-0.7V3.9C128,1.9,126.1,0.3,124,0.7z"/>
<g>
	<path class="st1" d="M82.4,31.1h-3.6c-0.4,0-0.8,0.2-1.1,0.5L74,36l-0.1-4.3c-0.1-0.3-0.3-0.6-0.7-0.6c-8.3-0.3-15-7.2-15-15.5v0
		C58.3,7,65.3,0,73.8,0l8.5,0c8.6,0,15.5,7,15.5,15.5v0C97.9,24.1,90.9,31.1,82.4,31.1z"/>
	<g>
		<path class="st2" d="M69.9,8.4c0.3,1.4-0.4,2.8-1.9,4.5l-2.5,2.9l4.4-0.8l0,2.4l-8.3,1.5l0-2.1l4.1-4.6c1.3-1.4,1.7-2.1,1.6-2.8
			c-0.1-0.6-0.6-1-1.5-0.8c-1,0.2-1.5,0.8-1.5,1.8l-2.6,0.5c-0.2-2.5,1.3-4.2,3.9-4.7C68,5.5,69.5,6.5,69.9,8.4z"/>
		<path class="st2" d="M78.8,11.4l1.2-0.2l0,2.3l-1.2,0.2l0,2l-2.3,0.4l0-2l-5.7,1l0-2l5.7-8.8l2.5-0.4L78.8,11.4z M76.5,11.8
			l0.1-4.3l-0.1,0l-3.1,4.8L76.5,11.8z"/>
	</g>
	<path class="st2" d="M75.2,27.1L86.5,4.7l1.6,0.8L76.8,27.8L75.2,27.1z"/>
	<path class="st2" d="M94.3,14.7l-4.8,10.8l-3.2,0.6l4.9-10.7l-5.2,0.9l0-2.6l8.2-1.4L94.3,14.7z"/>
</g>
<g>
	<path class="st0" d="M11.3,32.3c0,1.7-1.2,3-3.7,3H6.4l-0.6,2.9H4l1.6-8.4h2.6C10.3,29.8,11.3,30.9,11.3,32.3z M9.3,32.4
		c0-0.7-0.5-0.9-1.2-0.9H7.2l-0.4,2.1h1C8.6,33.6,9.3,33.2,9.3,32.4z"/>
	<path class="st0" d="M16.8,36.4h-3.2l-0.9,1.7h-2.2l4.9-8.4h2l1.7,8.4h-2L16.8,36.4z M16.6,34.9l-0.5-3l-1.6,3H16.6z"/>
	<path class="st0" d="M23.7,31.5l-0.2,1.2h1.2c1.4,0,2.8,0.6,2.8,2.4c0,2-1.5,3-3.5,3h-3.5l1.6-8.4h5.7l-0.3,1.7H23.7z M23.1,34.4
		l-0.4,2.1H24c0.9,0,1.5-0.4,1.5-1.2c0-0.6-0.5-0.9-1.1-0.9H23.1z"/>
	<path class="st0" d="M28.7,34.3c0-2.6,2-4.8,4.9-4.8c2.5,0,4.2,1.5,4.2,4c0,2.6-2,4.8-4.9,4.8C30.4,38.3,28.7,36.8,28.7,34.3z
		 M35.7,33.6c0-1.5-1-2.2-2.3-2.2c-1.8,0-2.8,1.4-2.8,2.9c0,1.5,1,2.2,2.3,2.2C34.8,36.5,35.7,35,35.7,33.6z"/>
	<path class="st0" d="M45,31.5h-2.2l-1.3,6.6h-1.9l1.3-6.6h-2.2l0.3-1.8h6.3L45,31.5z"/>
	<path class="st0" d="M49.9,36.4h-3.2l-0.9,1.7h-2.2l4.9-8.4h2l1.7,8.4h-2L49.9,36.4z M49.6,34.9l-0.5-3l-1.6,3H49.6z"/>
	<path class="st0" d="M56.8,31.5l-0.3,1.3h3l-0.3,1.7h-3l-0.4,1.9h3.4l-0.3,1.7h-5.3l1.6-8.4h5.2l-0.3,1.7H56.8z"/>
	<path class="st0" d="M85,35.5c0,1.9-1.6,2.6-3.4,2.6H78l1.6-8.4h3.5c1.3,0,2.3,0.7,2.3,1.9c0,1-0.6,1.7-1.7,2.1v0
		C84.4,33.9,85,34.4,85,35.5z M83,35.5c0-0.6-0.4-0.9-1.2-0.9h-1.4l-0.4,1.8h1.5C82.5,36.5,83,36.1,83,35.5z M83.4,32.2
		c0-0.5-0.3-0.8-0.9-0.8h-1.3l-0.3,1.6h1.4C82.9,33.1,83.4,32.8,83.4,32.2z"/>
	<path class="st0" d="M85.9,34.2c0-2.7,2-4.7,5-4.7c1.2,0,2.3,0.3,3.2,0.9l-1.1,1.6c-0.6-0.4-1.3-0.6-2.1-0.6
		c-1.8,0-2.9,1.1-2.9,2.7c0,1.4,0.9,2.3,2.2,2.3c0.7,0,1.4-0.2,2.1-0.6l0.8,1.6c-0.9,0.5-1.9,0.8-3,0.8
		C87.6,38.3,85.9,36.7,85.9,34.2z"/>
	<path class="st0" d="M97.5,31.5l-0.3,1.3h3l-0.3,1.7h-3l-0.4,1.9h3.4l-0.3,1.7h-5.3l1.6-8.4h5.2l-0.3,1.7H97.5z"/>
	<path class="st0" d="M107.6,31.5h-3.3l-1.3,6.6h-1.9l1.6-8.4h5.1L107.6,31.5z"/>
	<path class="st0" d="M114.1,36.6h1l-0.6,3.2h-1.7l0.3-1.5h-4.9l-0.3,1.5h-1.7l0.6-3.2h0.9c0.6-0.8,1-1.8,1.3-2.9l0.8-3.9h5.8
		L114.1,36.6z M109.6,36.6h2.7l1-5.1h-2.1l-0.4,2.2C110.5,34.8,110.1,35.8,109.6,36.6z"/>
	<path class="st0" d="M121.7,36.4h-3.2l-0.9,1.7h-2.2l4.9-8.4h2l1.7,8.4h-2L121.7,36.4z M121.5,34.9l-0.5-3l-1.6,3H121.5z"/>
	<path class="st0" d="M64.2,29.8h1.4l0.9,4.3h0l2.6-4.3h1.4l0.5,8.4h-1.8l-0.2-4.8h0L66.8,37h-1.3l-0.9-3.6h0l-2.1,4.8h-2L64.2,29.8
		z"/>
</g>
</svg>
